<svg xmlns="http://www.w3.org/2000/svg" xmlns:xlink="http://www.w3.org/1999/xlink" width="249px" height="40px" viewBox="0 0 249 40"><title>Artboard</title><g id="Artboard" stroke="none" stroke-width="1" fill="none" fill-rule="evenodd"><g id="www-&#x421;&#x438;&#x433;&#x43D;&#x430;&#x43B;_&#x441;&#x438;&#x433;&#x43D;&#x430;&#x43B;&#x438;&#x437;&#x430;&#x446;&#x438;&#x44F;" transform="translate(-65.001000, 0.261000)" fill-rule="nonzero"><g id="_5073724112" transform="translate(65.090000, 0.000000)"><path d="M208.831,16.247 L209.751,16.247 L212.291,16.247 L212.291,23.791 L211.182,23.791 L210.991,23.791 L208.332,16.247 L208.831,16.247 L208.831,16.247 Z M121.782,20.028 C121.782,22.111 120.169,23.807 118.185,23.807 C116.202,23.807 114.59,22.111 114.59,20.028 C114.59,17.943 116.202,16.247 118.185,16.247 C120.169,16.247 121.782,17.943 121.782,20.028 Z M245.733,23.791 L245.733,16.247 L249.186,16.247 L249.186,0 L181.457,0 L181.457,16.247 L182.92,16.247 L180.261,23.791 L180.061,23.791 L177.557,23.791 L174.898,16.211 L176.318,16.211 L176.423,0.009 L148.098,0.009 L148.098,11.569 L148.098,11.895 L136.631,11.895 C135.617,9.629 134.203,7.591 132.424,5.832 C130.57,4.003 128.414,2.566 126.012,1.563 C123.531,0.526 120.897,0 118.185,0 C115.474,0 112.841,0.526 110.359,1.563 C107.957,2.566 105.801,4.003 103.949,5.832 C102.902,6.868 101.98,7.999 101.192,9.218 C100.902,8.842 100.598,8.474 100.277,8.116 C98.856,6.537 97.175,5.193 95.281,4.121 C94.488,3.673 93.666,3.277 92.82,2.937 L92.82,0 L76.676,0 L76.676,2.933 C75.83,3.274 75.007,3.67 74.214,4.118 C74.071,4.199 73.931,4.282 73.791,4.364 L73.791,0 L0,0 L0,16.247 L3.455,16.247 L3.455,23.791 L0,23.791 L0,40.039 L73.799,40.039 L73.799,35.678 C73.936,35.761 74.074,35.841 74.214,35.92 C75.007,36.369 75.83,36.764 76.676,37.105 L76.676,40.039 L92.82,40.039 L92.82,37.102 C93.666,36.761 94.488,36.365 95.281,35.917 C97.175,34.846 98.856,33.502 100.277,31.921 C100.598,31.565 100.902,31.197 101.192,30.821 C101.98,32.039 102.902,33.171 103.949,34.206 C105.801,36.035 107.957,37.472 110.359,38.476 C112.841,39.513 115.474,40.039 118.185,40.039 C120.897,40.039 123.531,39.513 126.014,38.476 C128.414,37.472 130.57,36.035 132.424,34.206 C134.203,32.448 135.617,30.408 136.631,28.143 L142.009,28.143 L142.017,40.05 L249.193,40.039 L249.193,23.791 L245.733,23.791 L245.733,23.791 Z" id="Shape" fill="#FEFEFE"></path><g id="Group" transform="translate(4.612000, 4.668000)" fill="#E02B28"><polygon id="Path" points="142.017 11.896 131.442 11.896 131.442 18.86 142.017 18.86"></polygon><g transform="translate(-0.000000, 0.000000)"><polygon id="Path" points="61.113 6.963 64.567 6.963 64.567 0 50.73 0 50.73 6.963 54.19 6.963 54.19 11.896 43.814 11.896 43.818 6.963 47.275 6.963 47.275 0 33.438 0 33.438 6.963 36.898 6.963 36.898 23.792 33.438 23.792 33.438 30.755 47.279 30.755 47.279 23.792 43.818 23.792 43.814 18.859 54.19 18.859 54.19 23.792 50.73 23.792 50.73 30.755 64.574 30.755 64.574 23.792 61.113 23.792"></polygon><polygon id="Path" points="10.377 18.83 10.377 6.963 13.836 6.963 13.836 0 -7.10542736e-15 0 -7.10542736e-15 6.963 3.455 6.963 3.455 23.792 -7.10542736e-15 23.792 -7.10542736e-15 30.755 10.377 30.755 21.331 11.926 21.331 23.792 17.862 23.792 17.862 30.755 31.131 30.755 31.131 23.792 27.663 23.792 27.663 6.963 31.131 6.964 31.131 0.001 21.331 0"></polygon><path d="M113.574,23.807 C109.04,23.807 105.364,20.038 105.364,15.386 C105.364,10.733 109.04,6.963 113.574,6.963 C118.108,6.963 121.783,10.733 121.783,15.386 C121.783,20.038 118.108,23.807 113.574,23.807 L113.574,23.807 Z M113.574,0 C104.977,0 98.007,6.884 98.007,15.377 C98.007,23.87 104.977,30.754 113.574,30.754 C122.17,30.754 129.14,23.87 129.14,15.377 C129.14,6.884 122.17,0 113.574,0 Z" id="Shape"></path><path d="M83.595,22.334 L83.595,8.436 C86.397,9.654 88.34,12.307 88.34,15.385 C88.34,18.462 86.397,21.115 83.595,22.334 Z M76.677,22.337 C73.871,21.119 71.923,18.464 71.923,15.385 C71.923,12.305 73.871,9.651 76.677,8.432 L76.677,22.337 Z M83.595,1.734 L83.595,1.42108547e-14 L76.677,1.42108547e-14 L76.677,1.733 C69.744,3.146 64.567,8.718 64.567,15.378 C64.567,22.037 69.744,27.609 76.677,29.022 L76.677,30.755 L83.595,30.755 L83.595,29.02 C90.525,27.605 95.698,22.034 95.698,15.378 C95.698,8.72 90.525,3.149 83.595,1.734 L83.595,1.734 Z" id="Shape"></path><polygon id="Path" points="236.508 23.792 236.508 6.963 239.961 6.963 239.961 0 226.124 0 226.124 6.963 229.584 6.963 229.584 11.896 219.208 11.896 219.213 6.963 222.669 6.963 222.669 0 208.832 0 208.832 6.963 212.292 6.963 212.292 23.792 208.832 23.792 208.832 30.755 222.673 30.755 222.673 23.792 219.213 23.792 219.208 18.859 229.584 18.859 229.584 23.792 226.124 23.792 226.124 30.755 239.968 30.755 239.968 23.792"></polygon><path d="M189.274,13.932 L191.014,8.996 L192.745,13.932 L189.274,13.932 L189.274,13.932 Z M197.191,6.963 L200.526,6.963 L200.526,1.42108547e-14 L181.456,1.42108547e-14 L181.456,6.963 L184.838,6.963 L178.906,23.792 L175.448,23.792 L175.448,30.755 L189.281,30.755 L189.281,23.792 L185.8,23.792 L186.82,20.896 L191.555,20.896 L195.19,20.906 L196.201,23.792 L192.741,23.792 L192.741,30.755 L206.573,30.755 L206.573,23.792 L203.122,23.794 L197.191,6.963 L197.191,6.963 Z" id="Shape"></path><polygon id="Path" points="169.683 23.792 163.766 6.927 167.124 6.927 167.169 0.001 148.099 0.001 148.099 6.927 151.411 6.927 145.482 23.793 142.009 23.792 142.014 30.765 155.849 30.765 155.844 23.792 152.392 23.792 157.588 8.959 162.776 23.792 159.306 23.792 159.31 30.765 173.146 30.765 173.146 23.802"></polygon></g></g></g></g></g></svg>